<svg width="216" height="60" viewBox="0 0 216 60" fill="none" xmlns="http://www.w3.org/2000/svg">
<path d="M0.539062 11.3906L14.7891 11.1562V15.4688L11.2969 16.9219L15.4219 34.1953L22.1484 11.5547L28.6172 11.1562L35.0625 34.1484L39.6562 16.9219L36.0703 15.4688V11.3906L49.7344 11.1562V15.4688L46.2891 16.9219L38.0859 45H31.2656L24.9844 22.1953L23.8359 26.7656L18.3047 45H11.6719L3.91406 16.875L0.539062 15.4688V11.3906ZM59.1562 33.6328C59.2812 35.5547 59.8594 37.0547 60.8906 38.1328C61.9375 39.1953 63.2969 39.7266 64.9688 39.7266C66.1562 39.7266 67.3438 39.5625 68.5312 39.2344C69.7344 38.8906 70.7266 38.5469 71.5078 38.2031C72.3047 37.8438 72.8125 37.5938 73.0312 37.4531L75.0938 41.4375C75.0938 41.5 74.5312 41.8984 73.4062 42.6328C72.2969 43.3516 70.9297 44.0078 69.3047 44.6016C67.6953 45.1797 65.9766 45.4688 64.1484 45.4688C60.0859 45.4688 56.9922 44.3438 54.8672 42.0938C52.7422 39.8438 51.6797 36.6562 51.6797 32.5312C51.6797 29.75 52.1875 27.3125 53.2031 25.2188C54.2344 23.1094 55.7109 21.4844 57.6328 20.3438C59.5547 19.1875 61.8359 18.6094 64.4766 18.6094C67.9922 18.6094 70.6875 19.6172 72.5625 21.6328C74.4375 23.6484 75.375 26.3984 75.375 29.8828C75.375 30.6484 75.3359 31.3906 75.2578 32.1094C75.1797 32.8281 75.125 33.2812 75.0938 33.4688L59.1562 33.6328ZM64.0078 24.3516C62.6953 24.3516 61.625 24.7969 60.7969 25.6875C59.9688 26.5625 59.4531 27.7188 59.25 29.1562H67.9453C67.9453 27.7188 67.625 26.5625 66.9844 25.6875C66.3438 24.7969 65.3516 24.3516 64.0078 24.3516ZM88.125 21.1406C88.9844 20.4688 89.9531 19.8828 91.0312 19.3828C92.1094 18.8672 93.4297 18.6094 94.9922 18.6094C98.1953 18.6094 100.633 19.7109 102.305 21.9141C103.992 24.1172 104.836 27.25 104.836 31.3125C104.836 35.8906 103.648 39.4141 101.273 41.8828C98.9141 44.3516 95.4609 45.5859 90.9141 45.5859C89.3516 45.5859 87.8281 45.5 86.3438 45.3281C84.875 45.1719 83.6641 45.0156 82.7109 44.8594C81.7734 44.7031 81.1797 44.5938 80.9297 44.5312V12.9844L77.3203 12.0234V8.17969L88.125 7.80469V21.1406ZM88.125 39.4219C88.125 39.4531 88.4609 39.5312 89.1328 39.6562C89.8047 39.7656 90.6562 39.8203 91.6875 39.8203C95.5 39.8203 97.3984 37.1484 97.3828 31.8047C97.3828 29.3359 97.0078 27.4766 96.2578 26.2266C95.5078 24.9766 94.3203 24.3516 92.6953 24.3516C91.8359 24.3516 91.0625 24.5156 90.375 24.8438C89.7031 25.1562 89.1562 25.5078 88.7344 25.8984C88.3281 26.2734 88.125 26.4844 88.125 26.5312V39.4219ZM153.211 45H140.203V41.1562L142.758 39.9609V28.5469C142.758 27.2031 142.539 26.2109 142.102 25.5703C141.68 24.9297 140.969 24.6094 139.969 24.6094C139.047 24.6094 138.188 24.7969 137.391 25.1719C136.609 25.5312 135.953 25.9297 135.422 26.3672C134.906 26.7891 134.648 27.0312 134.648 27.0938V39.9609L137.133 41.1562V45H124.945V41.1562L127.453 39.9609V28.5469C127.453 27.1719 127.242 26.1719 126.82 25.5469C126.398 24.9219 125.695 24.6094 124.711 24.6094C123.789 24.6094 122.922 24.7969 122.109 25.1719C121.312 25.5312 120.648 25.9375 120.117 26.3906C119.602 26.8281 119.344 27.0625 119.344 27.0938V39.9609L121.875 41.1562V45H108.445V41.1562L112.125 39.9609V24.3516L108.492 23.1562V19.3125L118.523 19.0781L118.852 22.4766C118.852 22.4141 119.312 22.0391 120.234 21.3516C121.172 20.6641 122.266 20.0391 123.516 19.4766C124.766 18.8984 126.008 18.6094 127.242 18.6094C130.477 18.6094 132.688 19.9844 133.875 22.7344C134.766 21.8438 135.977 20.9375 137.508 20.0156C139.055 19.0781 140.742 18.6094 142.57 18.6094C145.039 18.6094 146.883 19.3594 148.102 20.8594C149.336 22.3594 149.953 24.4844 149.953 27.2344V39.9609L153.211 41.1562V45ZM169.078 18.6094C172.938 18.6094 175.914 19.7344 178.008 21.9844C180.117 24.2344 181.172 27.4297 181.172 31.5703C181.172 34.4141 180.641 36.8828 179.578 38.9766C178.531 41.0703 177.047 42.6797 175.125 43.8047C173.203 44.9141 170.945 45.4688 168.352 45.4688C160.195 45.4688 156.117 41.0703 156.117 32.2734C156.117 29.4297 156.648 26.9844 157.711 24.9375C158.789 22.8906 160.305 21.3281 162.258 20.25C164.211 19.1562 166.484 18.6094 169.078 18.6094ZM168.82 24.3516C167.008 24.3516 165.672 24.9375 164.812 26.1094C163.969 27.2812 163.547 29.2578 163.547 32.0391C163.547 34.6953 163.945 36.6406 164.742 37.875C165.555 39.1094 166.836 39.7266 168.586 39.7266C170.352 39.7266 171.648 39.1094 172.477 37.875C173.305 36.6406 173.719 34.6172 173.719 31.8047C173.719 29.3047 173.328 27.4375 172.547 26.2031C171.766 24.9688 170.523 24.3516 168.82 24.3516ZM195.023 22.3828C195.023 22.3203 195.523 21.9609 196.523 21.3047C197.539 20.6484 198.695 20.0547 199.992 19.5234C201.289 18.9766 202.578 18.7031 203.859 18.7031C206.156 18.7031 207.945 19.4609 209.227 20.9766C210.508 22.4922 211.148 24.5781 211.148 27.2344V39.9609L214.523 41.1562V45H201.305V41.1562L203.953 39.9609V28.5469C203.953 27.4219 203.656 26.5 203.062 25.7812C202.469 25.0625 201.68 24.7031 200.695 24.7031C199.805 24.7031 198.977 24.9062 198.211 25.3125C197.461 25.7031 196.828 26.1406 196.312 26.625C195.812 27.0938 195.562 27.3594 195.562 27.4219V39.9609L198.188 41.1562V45H184.523V41.1562L188.367 39.9609V24.3516L184.523 23.1562V19.3125L194.695 19.0781L195.023 22.3828Z" fill="#CC5803"/>
</svg>
