<svg width="300" height="400" viewBox="0 0 300 400" fill="none" xmlns="http://www.w3.org/2000/svg">
<g clip-path="url(#clip0_230_609)">
<rect width="300" height="400" fill="#EACDC2"/>
<path d="M78.1562 96.7656L87.125 96.5938V98.5156L84.3438 99.1562L87.7656 113.656L93.0469 96.7656L96.0781 96.5938L101.266 114.016L105.234 99.1562L102.312 98.5156V96.7656L110.953 96.5938V98.5156L108.438 99.1562L102.797 119H99.2812L95.4375 104.281L94.5156 100.828L93.5156 104.438L89.2031 119H86L80.6562 99.1562L78.1562 98.5156V96.7656ZM115.766 111C115.766 112.75 116.193 114.151 117.047 115.203C117.901 116.245 119.021 116.766 120.406 116.766C121.344 116.766 122.214 116.635 123.016 116.375C123.818 116.115 124.479 115.833 125 115.531C125.521 115.219 125.781 115.042 125.781 115L126.906 116.656C126.906 116.698 126.557 116.958 125.859 117.438C125.172 117.906 124.318 118.339 123.297 118.734C122.286 119.12 121.214 119.312 120.078 119.312C117.557 119.312 115.646 118.552 114.344 117.031C113.052 115.51 112.406 113.396 112.406 110.688C112.406 109 112.734 107.474 113.391 106.109C114.057 104.745 114.984 103.672 116.172 102.891C117.37 102.109 118.729 101.719 120.25 101.719C124.729 101.719 126.969 104.224 126.969 109.234C126.969 109.578 126.948 109.922 126.906 110.266C126.865 110.609 126.833 110.833 126.812 110.938L115.766 111ZM123.578 108.594C123.578 107.292 123.297 106.24 122.734 105.438C122.182 104.625 121.297 104.219 120.078 104.219C118.839 104.219 117.854 104.635 117.125 105.469C116.406 106.302 115.995 107.344 115.891 108.594H123.578ZM134.328 103.578C135.901 102.339 137.5 101.719 139.125 101.719C141.365 101.719 143.042 102.464 144.156 103.953C145.281 105.432 145.844 107.464 145.844 110.047C145.844 111.88 145.505 113.495 144.828 114.891C144.161 116.286 143.167 117.375 141.844 118.156C140.521 118.927 138.922 119.312 137.047 119.312C136.005 119.312 135.047 119.255 134.172 119.141C133.297 119.026 132.599 118.906 132.078 118.781C131.568 118.646 131.25 118.557 131.125 118.516V96.9219L128.562 96.2812V94.5156L134.328 94.3594V103.578ZM134.328 116.438C134.328 116.458 134.615 116.521 135.188 116.625C135.76 116.719 136.542 116.766 137.531 116.766C139.281 116.766 140.542 116.177 141.312 115C142.094 113.823 142.484 112.276 142.484 110.359C142.484 108.484 142.156 107.005 141.5 105.922C140.854 104.828 139.849 104.281 138.484 104.281C137.63 104.281 136.891 104.438 136.266 104.75C135.651 105.052 135.172 105.38 134.828 105.734C134.495 106.089 134.328 106.297 134.328 106.359V116.438ZM154.125 104.312C154.729 103.74 155.562 103.167 156.625 102.594C157.688 102.01 158.786 101.719 159.922 101.719C162.078 101.719 163.562 102.635 164.375 104.469C164.906 103.938 165.714 103.349 166.797 102.703C167.891 102.047 169.068 101.719 170.328 101.719C172.036 101.719 173.286 102.224 174.078 103.234C174.88 104.234 175.281 105.651 175.281 107.484V116.438L177.688 117.234V119H170V117.234L172.078 116.438V107.797C172.078 106.62 171.875 105.766 171.469 105.234C171.062 104.703 170.359 104.438 169.359 104.438C168.547 104.438 167.807 104.63 167.141 105.016C166.484 105.401 165.943 105.818 165.516 106.266C165.089 106.714 164.875 106.958 164.875 107V116.438L166.969 117.234V119H159.594V117.234L161.688 116.438V107.797C161.688 106.62 161.484 105.766 161.078 105.234C160.672 104.703 159.969 104.438 158.969 104.438C158.156 104.438 157.417 104.63 156.75 105.016C156.094 105.401 155.552 105.818 155.125 106.266C154.698 106.714 154.484 106.958 154.484 107V116.438L156.562 117.234V119H148.562V117.234L151.281 116.438V104.594L148.562 103.953V102.203L153.844 102.047L154.125 104.312ZM188.094 101.719C190.458 101.719 192.302 102.484 193.625 104.016C194.948 105.536 195.609 107.599 195.609 110.203C195.609 111.995 195.276 113.583 194.609 114.969C193.953 116.354 193.016 117.427 191.797 118.188C190.589 118.938 189.193 119.312 187.609 119.312C185.182 119.312 183.297 118.583 181.953 117.125C180.609 115.667 179.938 113.521 179.938 110.688C179.938 108.896 180.281 107.323 180.969 105.969C181.667 104.604 182.63 103.557 183.859 102.828C185.089 102.089 186.5 101.719 188.094 101.719ZM187.938 104.281C186.354 104.281 185.182 104.802 184.422 105.844C183.672 106.875 183.297 108.432 183.297 110.516C183.297 114.672 184.792 116.755 187.781 116.766C189.344 116.766 190.479 116.234 191.188 115.172C191.896 114.099 192.25 112.495 192.25 110.359C192.25 106.307 190.812 104.281 187.938 104.281ZM203.75 104.312C204.417 103.74 205.286 103.167 206.359 102.594C207.443 102.01 208.557 101.719 209.703 101.719C211.411 101.719 212.693 102.229 213.547 103.25C214.401 104.26 214.828 105.672 214.828 107.484V116.438L217.219 117.234V119H209.547V117.234L211.625 116.438V107.797C211.625 106.641 211.401 105.792 210.953 105.25C210.505 104.708 209.771 104.438 208.75 104.438C207.938 104.438 207.188 104.63 206.5 105.016C205.823 105.401 205.255 105.818 204.797 106.266C204.339 106.714 204.109 106.958 204.109 107V116.438L206.188 117.234V119H198.188V117.234L200.906 116.438V104.594L198.188 103.953V102.203L203.469 102.047L203.75 104.312Z" fill="#1A1423"/>
<circle cx="-14" cy="17" r="91" stroke="#1A1423" stroke-width="2"/>
<circle cx="321" cy="215" r="121" stroke="#1A1423" stroke-width="2"/>
<circle cx="27" cy="223" r="78" stroke="#1A1423" stroke-width="2"/>
<circle cx="146" cy="334" r="48" stroke="#1A1423" stroke-width="2"/>
<circle cx="166" cy="165" r="20" stroke="#1A1423" stroke-width="2"/>
<circle cx="202.5" cy="4.5" r="35.5" stroke="#1A1423" stroke-width="2"/>
</g>
<defs>
<clipPath id="clip0_230_609">
<rect width="300" height="400" fill="white"/>
</clipPath>
</defs>
</svg>
