<svg width="24" height="24" viewBox="0 0 24 24" fill="none" xmlns="http://www.w3.org/2000/svg">
<path fill-rule="evenodd" clip-rule="evenodd" d="M18.8512 6.45123C18.9367 6.36581 19.0045 6.26439 19.0509 6.15276C19.0972 6.04112 19.1211 5.92146 19.1211 5.80059C19.1212 5.67973 19.0975 5.56003 19.0513 5.44834C19.0051 5.33664 18.9374 5.23514 18.852 5.14963C18.7666 5.06411 18.6651 4.99625 18.5535 4.94993C18.4419 4.90361 18.3222 4.87973 18.2013 4.87966C18.0805 4.87958 17.9608 4.90331 17.8491 4.9495C17.7374 4.99568 17.6359 5.06341 17.5504 5.14883L12 10.6992L6.45116 5.14883C6.27846 4.97612 6.04421 4.87909 5.79996 4.87909C5.55572 4.87909 5.32147 4.97612 5.14876 5.14883C4.97606 5.32153 4.87903 5.55578 4.87903 5.80003C4.87903 6.04427 4.97606 6.27852 5.14876 6.45123L10.6992 12L5.14876 17.5488C5.06325 17.6343 4.99541 17.7359 4.94913 17.8476C4.90285 17.9593 4.87903 18.0791 4.87903 18.2C4.87903 18.321 4.90285 18.4407 4.94913 18.5525C4.99541 18.6642 5.06325 18.7657 5.14876 18.8512C5.32147 19.0239 5.55572 19.121 5.79996 19.121C5.9209 19.121 6.04066 19.0971 6.15239 19.0509C6.26412 19.0046 6.36565 18.9367 6.45116 18.8512L12 13.3008L17.5504 18.8512C17.7231 19.0237 17.9572 19.1205 18.2013 19.1204C18.4454 19.1202 18.6795 19.0231 18.852 18.8504C19.0245 18.6777 19.1213 18.4436 19.1211 18.1995C19.121 17.9554 19.0239 17.7213 18.8512 17.5488L13.3008 12L18.8512 6.45123Z" fill="#EACDC2"/>
</svg>
