<svg width="24" height="24" viewBox="0 0 24 24" fill="none" xmlns="http://www.w3.org/2000/svg">
<path d="M18.25 6.99999C18.25 7.33151 18.1183 7.64945 17.8839 7.88387C17.6494 8.11829 17.3315 8.24999 17 8.24999C16.6685 8.24999 16.3505 8.11829 16.1161 7.88387C15.8817 7.64945 15.75 7.33151 15.75 6.99999C15.75 6.66847 15.8817 6.35052 16.1161 6.1161C16.3505 5.88168 16.6685 5.74999 17 5.74999C17.3315 5.74999 17.6494 5.88168 17.8839 6.1161C18.1183 6.35052 18.25 6.66847 18.25 6.99999ZM15.5 2.04999C13.7631 2.05105 12.0977 2.74148 10.8696 3.96961C9.64146 5.19774 8.95103 6.86315 8.94997 8.59999C8.94997 8.98699 8.99998 9.35999 9.05998 9.70399C9.06835 9.7473 9.06638 9.79197 9.05421 9.83438C9.04205 9.87678 9.02004 9.91571 8.98997 9.94799L2.75497 16.184C2.23918 16.6995 1.94926 17.3988 1.94897 18.128V20.3C1.94897 21.266 2.73297 22.05 3.69897 22.05H6.19897C6.6631 22.05 7.10822 21.8656 7.43641 21.5374C7.7646 21.2092 7.94897 20.7641 7.94897 20.3V19.05H9.69997C10.39 19.05 10.95 18.49 10.95 17.8V16.05H12.7C13.0237 16.0502 13.3348 15.9248 13.568 15.7003C13.8011 15.4757 13.9381 15.1695 13.95 14.846C14.446 14.974 14.97 15.05 15.5 15.05C17.2368 15.0489 18.9022 14.3585 20.1304 13.1304C21.3585 11.9022 22.0489 10.2368 22.05 8.49999C22.05 4.86899 19.097 2.04999 15.5 2.04999ZM10.45 8.59999C10.451 7.26097 10.9834 5.9771 11.9303 5.03027C12.8771 4.08344 14.161 3.55105 15.5 3.54999C18.302 3.54999 20.55 5.73099 20.55 8.49999C20.5489 9.83901 20.0165 11.1229 19.0697 12.0697C18.1229 13.0165 16.839 13.5489 15.5 13.55C14.82 13.55 14.12 13.379 13.495 13.11C13.3808 13.061 13.2563 13.041 13.1325 13.0521C13.0088 13.0631 12.8897 13.1046 12.786 13.173C12.6823 13.2415 12.5972 13.3346 12.5384 13.444C12.4795 13.5534 12.4488 13.6757 12.449 13.8V14.55H10.7C10.01 14.55 9.44997 15.11 9.44997 15.8V17.55H7.69997C7.00997 17.55 6.44997 18.11 6.44997 18.8V20.3C6.44997 20.3663 6.42364 20.4299 6.37675 20.4768C6.32987 20.5236 6.26628 20.55 6.19997 20.55H3.69997C3.63367 20.55 3.57008 20.5236 3.5232 20.4768C3.47631 20.4299 3.44997 20.3663 3.44997 20.3V18.128C3.44997 17.797 3.58197 17.478 3.81597 17.244L10.052 11.009C10.253 10.8067 10.4021 10.5589 10.4867 10.2866C10.5714 10.0143 10.5889 9.72555 10.538 9.44499C10.4847 9.16633 10.4553 8.88364 10.45 8.59999Z" fill="#EACDC2"/>
</svg>
