<svg width="24" height="24" viewBox="0 0 24 24" fill="none" xmlns="http://www.w3.org/2000/svg">
<path d="M19.0817 20.8543L19.7747 6.16927H20.7789C21.1907 6.16927 21.5225 5.8277 21.5225 5.41584C21.5225 5.00398 21.1907 4.65213 20.7789 4.65213H16.3895V3.1457C16.3895 1.70913 15.4153 0.775269 13.8686 0.775269H10.1117C8.5646 0.775269 7.60031 1.70955 7.60031 3.14527V4.65213H3.23146C2.82988 4.65213 2.47803 5.00355 2.47803 5.41584C2.47803 5.82727 2.82946 6.16927 3.23146 6.16927H4.23603L4.9286 20.8646C4.99888 22.311 5.95288 23.2247 7.39974 23.2247H16.6106C18.0467 23.2247 19.011 22.3007 19.0813 20.8547M9.20746 3.24598C9.20746 2.67341 9.6296 2.27184 10.2322 2.27184H13.758C14.3709 2.27184 14.7926 2.67341 14.7926 3.24598V4.65213H9.20746V3.24598ZM7.55017 21.7183C6.96731 21.7183 6.53574 21.276 6.50574 20.694L5.80288 6.16927H18.1672L17.5046 20.6936C17.4746 21.2863 17.0525 21.7178 16.4597 21.7178L7.55017 21.7183ZM14.9833 19.9504C15.3146 19.9504 15.5662 19.6791 15.576 19.2973L15.8773 8.69013C15.8872 8.3087 15.6262 8.02713 15.2846 8.02713C14.9735 8.02713 14.712 8.31855 14.7017 8.68027L14.4009 19.2973C14.3906 19.659 14.6417 19.9504 14.9833 19.9504ZM9.02703 19.9504C9.3686 19.9504 9.61931 19.659 9.60946 19.2973L9.30817 8.68027C9.29788 8.31855 9.02703 8.02713 8.71546 8.02713C8.37388 8.02713 8.12274 8.3087 8.1326 8.69013L8.44417 19.2973C8.45446 19.6791 8.69531 19.9504 9.02703 19.9504ZM12.6129 19.2973V8.68027C12.6129 8.31855 12.3416 8.02713 12.0099 8.02713C11.6786 8.02713 11.397 8.31855 11.397 8.68027V19.2973C11.397 19.659 11.6786 19.9504 12.0099 19.9504C12.3313 19.9504 12.6129 19.659 12.6129 19.2973Z" fill="#EACDC2"/>
</svg>
